<!--
SPDX-FileCopyrightText: 2024 The Forkbomb Company

SPDX-License-Identifier: AGPL-3.0-or-later
-->

<svg width="100" height="102" viewBox="0 0 100 102" fill="none" xmlns="http://www.w3.org/2000/svg">
<rect width="100" height="101.613" fill="url(#paint0_linear_3910_7942)"/>
<rect width="100" height="101.613" fill="#E9EBEF"/>
<path fill-rule="evenodd" clip-rule="evenodd" d="M39.209 39.5384V32.7188L64.312 32.8492V44.1208C64.2927 44.0773 64.2709 44.0313 64.2491 43.9878C62.4761 40.3798 59.9484 37.659 56.9756 36.0353C54.1842 34.5087 51.001 33.9513 47.6823 34.5317C46.1874 34.7926 44.7893 35.3014 43.4758 36.0353C41.935 36.8996 40.5152 38.0758 39.209 39.5384ZM64.312 58.4787V70.8012H56.1725C56.1991 70.7705 56.2233 70.7322 56.2523 70.7143C56.7893 70.3896 57.0119 69.8296 56.9901 69.1213C56.9683 68.413 56.6297 67.9885 56.1096 67.7634C55.9911 67.7123 55.8702 67.6688 55.7516 67.6228C54.6922 67.2009 53.6787 66.6588 52.7208 65.9786C52.7135 65.9735 52.7063 65.9684 52.699 65.9633C52.2999 65.6794 51.908 65.37 51.5283 65.0351C48.2459 62.1558 46.4728 58.2869 46.4753 53.2367C46.4753 52.4747 46.601 51.7562 46.9252 51.1016C47.7694 49.396 49.5351 48.5521 51.1558 49.0866C52.3773 49.4906 53.8238 50.8689 53.7899 53.3185C53.7706 54.8221 54.1818 56.185 54.9317 57.3791C56.6926 60.1919 59.8758 61.2685 62.5076 59.8493C63.1873 59.4811 63.7968 59.0259 64.312 58.4787ZM55.5702 70.8012H39.209V56.231C39.4122 58.2204 39.8693 60.1664 40.5756 62.0509C41.0933 63.4369 41.7125 64.7333 42.414 65.9633L42.4164 65.9684C43.1759 67.3032 44.0322 68.5587 44.949 69.7554C45.4932 70.4663 46.1947 70.5251 46.7776 69.8756C47.3364 69.2491 47.3582 68.3797 46.826 67.6458C46.4922 67.183 46.1439 66.7329 45.8125 66.2675C45.7423 66.1704 45.6722 66.0707 45.6045 65.9709L45.5972 65.9633C43.1227 62.391 41.5383 58.3841 41.6762 53.9936C41.6133 51.7664 41.8334 50.0992 42.547 48.6033C44.0975 45.3558 46.393 43.5224 49.4384 43.2386C52.5998 42.9445 55.2074 44.3253 57.2223 47.3631C58.3447 49.0533 58.7897 51.0428 58.8042 53.2112C58.8091 54.1113 59.38 54.7198 60.154 54.7045C60.8216 54.6891 61.3489 54.0549 61.3513 53.2188C61.3562 50.92 60.9595 48.7362 59.975 46.7699C56.4967 39.8121 49.6271 38.5412 44.8836 41.6531C41.7778 43.6886 39.7 46.8083 39.2259 51.2294C39.2211 51.2882 39.2138 51.3445 39.209 51.4033V43.9341C39.2719 43.8395 39.3372 43.7423 39.4025 43.6477C43.2291 38.0835 49.5279 36.0123 55.1929 38.6972C59.5928 40.7812 62.6067 44.5555 63.4969 50.516C63.6299 51.4135 63.6686 52.3417 63.6638 53.2546C63.6565 54.9806 62.701 56.4867 61.315 57.0749C59.8081 57.7167 58.0834 57.1055 57.0627 55.5841C56.5474 54.8144 56.3636 53.9246 56.3515 52.9478C56.3322 51.3726 55.9331 49.9586 55.1324 48.7286C53.207 45.7675 49.7577 44.9134 47.0872 46.7852C45.2828 48.0484 44.141 49.9381 44.0177 52.5565C43.8798 55.4563 44.2983 58.2614 45.3408 60.8798C46.1318 62.8616 47.1453 64.5466 48.3571 65.9633L48.3644 65.9735C49.7287 67.5665 51.3445 68.817 53.1756 69.7657C53.9544 70.1671 54.772 70.4586 55.5702 70.8012ZM59.8032 65.9633H60.125C60.6233 65.8635 61.3852 65.7434 62.1302 65.5362C62.7809 65.3572 63.1002 64.6847 63.0058 63.8844C62.9187 63.1479 62.3842 62.5726 61.7674 62.5905C61.4311 62.6033 61.0974 62.68 60.7611 62.726C57.5755 63.1658 54.9534 61.831 52.9022 58.8009C51.7895 57.1593 51.4001 55.1903 51.3686 53.0808C51.3565 52.1372 50.8268 51.5286 50.0987 51.5491C49.3924 51.5695 48.8893 52.2011 48.8821 53.1088C48.8627 55.1647 49.1578 57.1516 49.9826 58.9415C52.0967 63.5315 55.3574 65.7101 59.8032 65.9633Z" fill="#8C00F2"/>
<path fill-rule="evenodd" clip-rule="evenodd" d="M64.3127 20.8496L79.1019 36.0335H56.9771C54.1841 34.5069 50.999 33.9495 47.6807 34.5299C46.1874 34.7908 44.7872 35.2996 43.4774 36.0335H24.417L39.1686 20.8496H64.3127Z" fill="url(#paint1_linear_3910_7942)"/>
<path fill-rule="evenodd" clip-rule="evenodd" d="M24.4137 20.8496H39.208V39.5367H39.2055C39.1401 39.6134 39.0723 39.6876 39.0069 39.7643C36.845 42.2549 35.2863 45.2082 34.6026 48.8009C33.7101 53.488 34.331 58.0294 35.5377 62.5017C35.7363 63.2407 36.3522 63.6217 36.9556 63.4683C37.7977 63.2561 38.2276 62.3739 37.931 61.3741C37.1868 58.8605 36.7368 56.2752 36.6715 53.5954C36.581 49.9823 37.3729 46.7374 39.2055 43.9349L39.208 43.9323V51.4015C39.2055 51.4092 39.2055 51.4143 39.2055 51.4194C39.0446 53.0355 39.0446 54.6337 39.2055 56.2063C39.2055 56.2139 39.2055 56.2216 39.208 56.2292V81.1454L24.4137 65.9615V20.8496Z" fill="url(#paint2_linear_3910_7942)"/>
<path fill-rule="evenodd" clip-rule="evenodd" d="M79.0986 65.9626L64.347 81.1465H24.4137V65.9626H39.203H39.2055H42.4107L42.4132 65.9677C43.1749 67.3025 44.0297 68.558 44.9447 69.7547C45.4903 70.4656 46.1916 70.5244 46.7748 69.8749C47.3354 69.2485 47.3556 68.379 46.8251 67.6451C46.4883 67.1823 46.1413 66.7323 45.8095 66.2669C45.7391 66.1697 45.6713 66.07 45.6009 65.9703L45.5958 65.9626H48.3536L48.3636 65.9729C49.7262 67.5659 51.3426 68.8163 53.1727 69.7624C53.9521 70.1664 54.7691 70.4579 55.5685 70.8006H56.1693C56.197 70.7699 56.2196 70.7315 56.2498 70.7136C56.7877 70.3889 57.0089 69.8263 56.9888 69.1206C56.9662 68.4123 56.6268 67.9878 56.1065 67.7628C55.9883 67.7117 55.8676 67.6682 55.7495 67.6222C54.6886 67.2002 53.678 66.6582 52.7202 65.978C52.7127 65.9729 52.7052 65.9677 52.6976 65.9626H79.0986Z" fill="url(#paint3_linear_3910_7942)"/>
<path fill-rule="evenodd" clip-rule="evenodd" d="M64.3118 20.8496V36.0326H60.6182L64.3118 20.8496Z" fill="#6200A9"/>
<path fill-rule="evenodd" clip-rule="evenodd" d="M64.3118 81.1445V65.9615H60.6182L64.3118 81.1445Z" fill="#6200A9"/>
<path d="M60.1232 65.9609C60.1023 65.965 60.0817 65.9693 60.0617 65.9734C59.9749 65.9699 59.8886 65.9658 59.8027 65.9609H60.1232Z" fill="white"/>
<path d="M64.3115 44.1172C65.7689 47.1422 66.384 50.4787 66.1466 53.9871C66.0177 55.8936 65.3527 57.3736 64.3115 58.4769V44.1172Z" fill="white"/>
<path fill-rule="evenodd" clip-rule="evenodd" d="M64.3125 20.8496L79.1018 36.0335V65.9615L64.3125 81.1454V20.8496Z" fill="url(#paint4_linear_3910_7942)"/>
<path fill-rule="evenodd" clip-rule="evenodd" d="M24.4138 36.0215V20.8376H39.2031L24.4138 36.0215Z" fill="#A223FF"/>
<path fill-rule="evenodd" clip-rule="evenodd" d="M64.3093 81.1465V65.9626H79.0986L64.3093 81.1465Z" fill="#565D9A"/>
<path fill-rule="evenodd" clip-rule="evenodd" d="M64.3093 20.8496V36.0335H79.0986L64.3093 20.8496Z" fill="#565D9A"/>
<ellipse cx="45.1172" cy="81.22" rx="22.6562" ry="0.942699" fill="url(#paint5_radial_3910_7942)" fill-opacity="0.5"/>
<rect x="24.4141" y="20.8379" width="39.9414" height="60.3327" fill="#3C4381" style="mix-blend-mode:color"/>
<defs>
<linearGradient id="paint0_linear_3910_7942" x1="50" y1="0" x2="50" y2="101.613" gradientUnits="userSpaceOnUse">
<stop stop-color="#E8EBEE"/>
<stop offset="1" stop-color="#CED3DB"/>
</linearGradient>
<linearGradient id="paint1_linear_3910_7942" x1="24.417" y1="28.4415" x2="79.1029" y2="28.4415" gradientUnits="userSpaceOnUse">
<stop stop-color="#9400FF"/>
<stop offset="1" stop-color="#C67DFF"/>
</linearGradient>
<linearGradient id="paint2_linear_3910_7942" x1="44.1931" y1="53.7489" x2="24.4132" y2="53.9333" gradientUnits="userSpaceOnUse">
<stop stop-color="#9400FF"/>
<stop offset="1" stop-color="#C67DFF"/>
</linearGradient>
<linearGradient id="paint3_linear_3910_7942" x1="79.0986" y1="73.5545" x2="24.4127" y2="73.5545" gradientUnits="userSpaceOnUse">
<stop stop-color="#9400FF"/>
<stop offset="1" stop-color="#C67DFF"/>
</linearGradient>
<linearGradient id="paint4_linear_3910_7942" x1="59.3224" y1="52.1763" x2="79.1022" y2="52.2523" gradientUnits="userSpaceOnUse">
<stop stop-color="#565D9A"/>
<stop offset="1" stop-color="#959CD9"/>
</linearGradient>
<radialGradient id="paint5_radial_3910_7942" cx="0" cy="0" r="1" gradientUnits="userSpaceOnUse" gradientTransform="translate(45.1172 81.22) rotate(90) scale(0.942699 22.6562)">
<stop stop-color="#25345D"/>
<stop offset="1" stop-color="#4E5C80" stop-opacity="0"/>
</radialGradient>
</defs>
</svg>
