<!--
SPDX-FileCopyrightText: 2024 The Forkbomb Company

SPDX-License-Identifier: AGPL-3.0-or-later
-->

<svg width="80" height="87" viewBox="0 0 80 87" fill="none" xmlns="http://www.w3.org/2000/svg">
<path fill-rule="evenodd" clip-rule="evenodd" d="M21.6431 26.9204V17.1025L58.3652 17.2903V33.5173C58.3369 33.4547 58.3051 33.3884 58.2732 33.3259C55.6795 28.1316 51.9818 24.2147 47.6331 21.8771C43.5497 19.6794 38.893 18.8769 34.0383 19.7126C31.8515 20.0881 29.8063 20.8206 27.8849 21.8771C25.6309 23.1214 23.5538 24.8147 21.6431 26.9204ZM58.3652 54.1875V71.9275H46.4583C46.4972 71.8833 46.5326 71.8281 46.5751 71.8024C47.3606 71.3348 47.6861 70.5287 47.6543 69.5089C47.6224 68.4892 47.1271 67.8781 46.3663 67.5542C46.1929 67.4806 46.016 67.418 45.8426 67.3517C44.2927 66.7443 42.8102 65.9639 41.4089 64.9847C41.3983 64.9773 41.3877 64.9699 41.377 64.9626C40.7932 64.5539 40.22 64.1086 39.6644 63.6263C34.8627 59.4812 32.269 53.9114 32.2726 46.6409C32.2726 45.5439 32.4566 44.5095 32.9307 43.5671C34.1657 41.1117 36.7487 39.8969 39.1195 40.6663C40.9064 41.2479 43.0224 43.2321 42.9729 46.7588C42.9446 48.9233 43.5462 50.8854 44.6431 52.6046C47.2191 56.6539 51.8757 58.2038 55.7255 56.1607C56.7198 55.6306 57.6115 54.9753 58.3652 54.1875ZM45.5772 71.9275H21.6431V50.9517C21.9403 53.8157 22.609 56.6171 23.6423 59.3302C24.3995 61.3255 25.3054 63.1919 26.3315 64.9626L26.335 64.9699C27.4461 66.8915 28.6988 68.6991 30.0398 70.4219C30.836 71.4453 31.8621 71.5299 32.7149 70.5949C33.5323 69.693 33.5641 68.4414 32.7857 67.3849C32.2974 66.7185 31.7878 66.0706 31.303 65.4006C31.2004 65.2607 31.0978 65.1172 30.9987 64.9736L30.9881 64.9626C27.3683 59.8198 25.0506 54.0513 25.2523 47.7306C25.1603 44.5242 25.4823 42.1241 26.5261 39.9705C28.7943 35.2954 32.1523 32.6559 36.6072 32.2473C41.232 31.8239 45.0465 33.8118 47.994 38.1851C49.6358 40.6184 50.2869 43.4825 50.3081 46.6042C50.3152 47.9 51.1503 48.7761 52.2826 48.754C53.2592 48.7319 54.0306 47.8189 54.0341 46.6151C54.0412 43.3057 53.4609 40.1619 52.0208 37.331C46.9325 27.3143 36.8832 25.4847 29.9443 29.9648C25.4009 32.8951 22.3614 37.3863 21.6678 43.7512C21.6607 43.8359 21.6501 43.9168 21.6431 44.0015V33.2486C21.7351 33.1124 21.8306 32.9724 21.9261 32.8362C27.524 24.8258 36.7381 21.844 45.0252 25.7094C51.4617 28.7096 55.8706 34.1431 57.1728 42.7241C57.3674 44.0162 57.424 45.3525 57.4169 46.6667C57.4063 49.1516 56.0086 51.3198 53.9811 52.1665C51.7766 53.0905 49.2537 52.2107 47.7605 50.0203C47.0068 48.9122 46.7379 47.6312 46.7202 46.225C46.6919 43.9573 46.108 41.9216 44.9368 40.1509C42.1201 35.888 37.0743 34.6585 33.1678 37.3531C30.5281 39.1717 28.858 41.8921 28.6775 45.6618C28.4758 49.8363 29.088 53.8747 30.6131 57.6443C31.7701 60.4972 33.2527 62.9231 35.0255 64.9626L35.0361 64.9773C37.0318 67.2707 39.3955 69.0709 42.0742 70.4366C43.2135 71.0146 44.4095 71.4342 45.5772 71.9275ZM51.7695 64.9626H52.2402C52.9691 64.819 54.0837 64.646 55.1735 64.3478C56.1254 64.0901 56.5924 63.122 56.4544 61.9697C56.3271 60.9095 55.5451 60.0812 54.6427 60.107C54.1509 60.1254 53.6626 60.2359 53.1708 60.3021C48.5106 60.9353 44.6749 59.0136 41.6743 54.6514C40.0466 52.288 39.4769 49.4535 39.4309 46.4164C39.4132 45.058 38.6383 44.1819 37.5732 44.2114C36.54 44.2408 35.804 45.15 35.7934 46.4569C35.7651 49.4166 36.1967 52.277 37.4034 54.8538C40.496 61.4617 45.2658 64.5981 51.7695 64.9626Z" fill="#A223FF"/>
<path fill-rule="evenodd" clip-rule="evenodd" d="M58.3656 0.0185547L80.0002 21.8778H47.6347C43.549 19.6801 38.8896 18.8776 34.0353 19.7133C31.8509 20.0888 29.8026 20.8213 27.8866 21.8778H0.00390625L21.5834 0.0185547H58.3656Z" fill="#A223FF"/>
<path fill-rule="evenodd" clip-rule="evenodd" d="M0.00012207 0.0185547H21.6421V26.9211H21.6384C21.5428 27.0316 21.4435 27.1384 21.3479 27.2488C18.1853 30.8343 15.9052 35.0861 14.905 40.2583C13.5995 47.006 14.5078 53.544 16.273 59.9825C16.5635 61.0464 17.4645 61.5949 18.3471 61.374C19.579 61.0685 20.2079 59.7985 19.7739 58.3591C18.6854 54.7404 18.0271 51.0186 17.9315 47.1607C17.7991 41.959 18.9575 37.2876 21.6384 33.2529L21.6421 33.2493V44.0022C21.6384 44.0132 21.6384 44.0206 21.6384 44.028C21.403 46.3545 21.403 48.6553 21.6384 50.9193C21.6384 50.9303 21.6384 50.9413 21.6421 50.9524V86.8226L0.00012207 64.9632V0.0185547Z" fill="#A223FF"/>
<path fill-rule="evenodd" clip-rule="evenodd" d="M79.9961 64.963L58.4166 86.8223L-0.000167847 86.8223V64.963L21.6344 64.963H21.6381H26.3269L26.3306 64.9704C27.4449 66.892 28.6952 68.6994 30.0338 70.4222C30.8319 71.4456 31.8578 71.5304 32.711 70.5953C33.5311 69.6934 33.5605 68.4417 32.7846 67.3852C32.2918 66.7189 31.7843 66.071 31.2989 65.4011C31.1959 65.2612 31.0966 65.1176 30.9937 64.9741L30.9863 64.963H35.0205L35.0352 64.9777C37.0284 67.2712 39.393 69.0712 42.0702 70.4333C43.2102 71.0149 44.4054 71.4346 45.5749 71.9279H46.4538C46.4942 71.8837 46.5273 71.8285 46.5715 71.8027C47.3584 71.3352 47.682 70.5253 47.6526 69.5093C47.6195 68.4896 47.1231 67.8786 46.3618 67.5546C46.189 67.481 46.0125 67.4184 45.8396 67.3521C44.2877 66.7447 42.8094 65.9643 41.4083 64.9851C41.3972 64.9778 41.3862 64.9704 41.3752 64.963H79.9961Z" fill="#A223FF"/>
<path fill-rule="evenodd" clip-rule="evenodd" d="M58.3643 0.0185547V21.8766H52.9609L58.3643 0.0185547Z" fill="#A223FF"/>
<path fill-rule="evenodd" clip-rule="evenodd" d="M58.3643 86.8193L58.3643 64.9613H52.9609L58.3643 86.8193Z" fill="#A223FF"/>
<path d="M52.2373 64.9609C52.2067 64.9668 52.1766 64.9729 52.1474 64.9789C52.0205 64.9738 51.8941 64.9679 51.7686 64.9609H52.2373Z" fill="#A223FF"/>
<path d="M58.3647 33.5156C60.4966 37.8706 61.3965 42.6739 61.0492 47.7248C60.8606 50.4694 59.8879 52.6001 58.3647 54.1884V33.5156Z" fill="#A223FF"/>
<path fill-rule="evenodd" clip-rule="evenodd" d="M58.3652 0.0185547L79.9999 21.8778V64.9632L58.3652 86.8226V0.0185547Z" fill="#A223FF"/>
<path fill-rule="evenodd" clip-rule="evenodd" d="M0.000116348 21.8594L0.000116348 0.000114441L21.6348 0.000114441L0.000116348 21.8594Z" fill="#A223FF"/>
<path fill-rule="evenodd" clip-rule="evenodd" d="M58.3614 86.8223V64.963H79.9961L58.3614 86.8223Z" fill="#A223FF"/>
<path fill-rule="evenodd" clip-rule="evenodd" d="M58.3614 0.0185547V21.8778L79.9961 21.8778L58.3614 0.0185547Z" fill="#A223FF"/>
<path d="M79.9999 21.877H58.3652V64.9631H79.9999V21.877Z" fill="#A223FF"/>
<path fill-rule="evenodd" clip-rule="evenodd" d="M0.00390625 64.9624V21.877H21.6421V26.9203C21.5465 27.0307 21.4473 27.1375 21.3517 27.2479C18.1891 30.8335 15.909 35.0853 14.9087 40.2574C13.6032 47.0052 14.5079 53.5431 16.2731 59.9816C16.5673 61.0455 17.4645 61.594 18.3508 61.3732C19.5791 61.0676 20.208 59.7976 19.7777 58.3582C18.6892 54.7396 18.0309 51.0178 17.9353 47.1598C17.8029 41.9582 18.9576 37.2867 21.6421 33.2521V44.0271C21.4068 46.3537 21.4068 48.6545 21.6385 50.9184V64.9624V65.0066L0.00390625 64.9624Z" fill="#A223FF"/>
<path fill-rule="evenodd" clip-rule="evenodd" d="M58.3652 86.8222H21.6382V65.0071V64.9629H21.6419L26.3343 64.9703C27.4486 66.8919 28.6953 68.6994 30.0376 70.4222C30.8356 71.4456 31.8616 71.5303 32.7148 70.5952C33.5349 69.6933 33.5643 68.4417 32.7847 67.3852C32.2955 66.7189 31.788 66.0709 31.3026 65.4009C31.1996 65.2611 31.0967 65.1175 30.9974 64.9739L35.039 64.9776C37.0322 67.2711 39.3931 69.0712 42.074 70.437C43.214 71.0149 44.4092 71.4345 45.5786 71.9278H46.4575C46.498 71.8836 46.5311 71.8285 46.5752 71.8027C47.3622 71.3352 47.6858 70.529 47.6527 69.5093C47.6233 68.4896 47.1268 67.8785 46.3656 67.5545C46.1927 67.4809 46.0162 67.422 45.8434 67.352C44.2915 66.7446 42.8131 65.9642 41.412 64.985L58.3652 65.0071V86.8222Z" fill="#A223FF"/>
</svg>
