<!--
SPDX-FileCopyrightText: 2024 The Forkbomb Company

SPDX-License-Identifier: AGPL-3.0-or-later
-->

<svg width="274" height="133" viewBox="0 0 274 133" fill="none" xmlns="http://www.w3.org/2000/svg">
<g clip-path="url(#clip0_1928_12185)">
<rect x="1" y="1" width="272" height="131" fill="#F9FAFB"/>
<path d="M55.7656 30.6211C55.7656 44.7645 68.8353 62.1186 74.943 74.221C79.2787 82.8121 84.5349 90.7059 88.2197 99.627C89.2897 102.218 90.2433 106.13 92.6453 107.331" stroke="#C1305B" stroke-width="3" stroke-linecap="round"/>
<path d="M94.1211 66.0262C103.641 66.0262 114.858 77.9122 121.33 84.3841C125.321 88.3752 128.68 77.823 130.345 74.7954C138.02 60.8405 147.56 47.7356 157.554 35.3752C161.725 30.216 168.93 20.9291 175.256 18.8203" stroke="#C1305B" stroke-width="3" stroke-linecap="round"/>
<path d="M54.291 30.6202C67.1565 30.6202 80.1527 23.758 91.9902 20.3759C100.148 18.0451 110.564 16.4978 117.724 12.918" stroke="#C1305B" stroke-width="3" stroke-linecap="round"/>
<path d="M117.724 12.918C117.724 21.276 128.259 31.8917 133.623 37.6683C136.823 41.1149 137.518 45.9886 140.671 49.142C143.248 51.7186 146.09 55.2379 147.227 58.6487" stroke="#C1305B" stroke-width="3" stroke-linecap="round"/>
<path d="M95.5957 108.807C116.566 108.807 137.248 103.37 155.341 93.3178C158.826 91.3813 159.213 91.7312 156.816 87.4171C154.956 84.0699 153.037 81.0615 151.325 77.8284C147.456 70.5209 148.285 64.7741 145.752 57.1758" stroke="#C1305B" stroke-width="3" stroke-linecap="round"/>
</g>
<rect x="1" y="1" width="272" height="131" rx="10" stroke="#EEECED"/>
<defs>
<clipPath id="clip0_1928_12185">
<rect x="1" y="1" width="272" height="131" rx="10" fill="white"/>
</clipPath>
</defs>
</svg>
