<svg width="274" height="133" viewBox="0 0 274 133" fill="none" xmlns="http://www.w3.org/2000/svg">
<g clip-path="url(#clip0_2990_7650)">
<rect x="1" y="1" width="272" height="131" fill="#F9FAFB"/>
<path d="M93.7133 28.707C93.019 35.6508 86.0727 42.1506 82.2046 47.5229C76.7773 55.0608 70.975 62.3739 65.3982 69.8096C64.2429 71.35 48.6668 92.2874 50.2359 92.7357C54.2781 93.8906 54.2549 95.3316 54.2549 99.4035C54.2549 100.396 58.7457 94.2352 60.8313 93.1924C61.864 92.6761 63.7425 92.6019 64.8502 92.9184C65.9565 93.2345 65.7636 95.3138 65.7636 95.1106C65.7636 91.8745 65.5911 90.0057 68.2297 87.8948C74.1676 83.1445 76.7375 70.0473 84.6708 66.5214C91.3327 63.5606 95.7577 55.1789 100.29 50.0804C102.487 47.6086 109.972 35.785 109.972 32.8173C109.972 32.1587 94.9645 31.2093 93.7133 28.707Z" stroke="#C1305B" stroke-width="3" stroke-linecap="round"/>
<path d="M52.6108 102.693C73.8022 102.693 91.1636 99.0357 110.154 89.5402C125.445 81.8948 133.396 71.8951 144.681 59.9463C149.223 55.1371 137.819 55.8755 135.638 57.5715C129.999 61.9575 126.596 68.4237 126.596 75.474C126.596 84.2273 125.197 86.252 133.994 86.252C139.181 86.252 145.787 82.9093 150.435 80.4063C156.449 77.1679 164.253 74.3644 169.342 69.811C172.264 67.1971 176.928 61.4055 180.212 59.9463C187.744 56.5986 193.152 49.2891 198.936 43.5053C200.631 41.8106 205.809 30.5352 199.758 30.5352C191.389 30.5352 182.537 51.7258 194.826 51.7258C200.302 51.7258 221.446 54.3847 223.598 50.0817" stroke="#C1305B" stroke-width="3" stroke-linecap="round"/>
</g>
<rect x="1" y="1" width="272" height="131" rx="10" stroke="#EEECED"/>
<defs>
<clipPath id="clip0_2990_7650">
<rect x="1" y="1" width="272" height="131" rx="10" fill="white"/>
</clipPath>
</defs>
</svg>
