<!--
SPDX-FileCopyrightText: 2024 The Forkbomb Company

SPDX-License-Identifier: AGPL-3.0-or-later
-->

<svg width="274" height="133" viewBox="0 0 274 133" fill="none" xmlns="http://www.w3.org/2000/svg">
<g clip-path="url(#clip0_1928_12182)">
<rect x="1" y="1" width="272" height="131" fill="#F9FAFB"/>
<path d="M54.2539 91.184C61.2126 89.7923 69.8674 82.127 75.7186 78.0312C86.4603 70.512 99.7661 66.7692 110.975 59.946C120.588 54.0952 131.437 49.0997 142.213 45.9712C150.765 43.4884 159.752 38.3688 168.519 37.0199C174.583 36.0871 182.602 34.9898 188.248 32.8183C191.784 31.4587 203.091 33.3116 199.574 31.9049C191.922 28.844 179.427 23.0054 176.192 14.9159C174.891 11.6639 182.617 17.7094 185.782 19.2088C191.795 22.0569 197.934 23.4026 203.867 26.6986C207.757 28.8595 205.084 29.0346 202.223 30.7175C196.888 33.8559 191.34 44.3408 189.07 49.7161C185.809 57.4405 183.126 65.5442 179.571 73.0989C178.77 74.801 182.321 66.4321 182.494 64.8784C183.078 59.6248 188.247 40.6283 192.359 38.5727" stroke="#C1305B" stroke-width="3" stroke-linecap="round"/>
<path d="M21.3722 71.4562C31.1918 83.7307 40.2826 93.663 44.481 108.357C45.5885 112.234 53.449 101.505 57.5425 101.05C64.7486 100.249 62.5409 99.4588 58.3645 96.1177C51.9356 90.9746 48.2426 82.6163 42.3802 76.7538C38.713 73.0867 37.8005 68.168 32.0589 68.168C27.442 68.168 23.2462 69.8121 18.084 69.8121" stroke="#C1305B" stroke-width="3" stroke-linecap="round"/>
</g>
<rect x="1" y="1" width="272" height="131" rx="10" stroke="#EEECED"/>
<defs>
<clipPath id="clip0_1928_12182">
<rect x="1" y="1" width="272" height="131" rx="10" fill="white"/>
</clipPath>
</defs>
</svg>
