<!--
SPDX-FileCopyrightText: 2024 The Forkbomb Company

SPDX-License-Identifier: AGPL-3.0-or-later
-->

<svg width="272" height="131" viewBox="0 0 272 131" fill="none" xmlns="http://www.w3.org/2000/svg">
<rect width="272" height="131" fill="#F9FAFB"/>
<path d="M54.7656 29.6211C54.7656 43.7645 67.8353 61.1186 73.943 73.221C78.2787 81.8121 83.5349 89.7059 87.2197 98.627C88.2897 101.218 89.2433 105.13 91.6453 106.331" stroke="#8A0EE2" stroke-width="3" stroke-linecap="round"/>
<path d="M93.1211 65.0262C102.641 65.0262 113.858 76.9122 120.33 83.3841C124.321 87.3752 127.68 76.823 129.345 73.7954C137.02 59.8405 146.56 46.7356 156.554 34.3752C160.725 29.216 167.93 19.9291 174.256 17.8203" stroke="#8A0EE2" stroke-width="3" stroke-linecap="round"/>
<path d="M53.291 29.6202C66.1565 29.6202 79.1527 22.758 90.9902 19.3759C99.1478 17.0451 109.564 15.4978 116.724 11.918" stroke="#8A0EE2" stroke-width="3" stroke-linecap="round"/>
<path d="M116.724 11.918C116.724 20.276 127.259 30.8917 132.623 36.6683C135.823 40.1149 136.518 44.9886 139.671 48.142C142.248 50.7186 145.09 54.2379 146.227 57.6487" stroke="#8A0EE2" stroke-width="3" stroke-linecap="round"/>
<path d="M94.5957 107.807C115.566 107.807 136.248 102.37 154.341 92.3178C157.826 90.3813 158.213 90.7312 155.816 86.4171C153.956 83.0699 152.037 80.0615 150.325 76.8284C146.456 69.5209 147.285 63.7741 144.752 56.1758" stroke="#8A0EE2" stroke-width="3" stroke-linecap="round"/>
</svg>
